#N canvas 59 275 737 510 10;
#X obj 37 120 oscparse;
#X obj 37 94 netreceive -u -b;
#X msg 37 67 listen 4848;
#X obj 37 43 loadbang;
#X obj 248 274 osc~ 220;
#X obj 306 392 hsl 128 15 0 1 0 0 empty empty empty -2 -8 0 10 -262144
-1 -1 11300 1;
#X obj 247 391 *~;
#X obj 248 441 dac~;
#X obj 332 306 *~ 0.2;
#X obj 248 324 *~;
#X obj 402 295 loadbang;
#X obj 331 274 osc~ 3;
#X msg 400 325 0.5;
#X obj 229 358 *~;
#X obj 14 151 print message;
#X obj 116 149 route list;
#X obj 116 179 route synth1;
#X obj 116 206 route gate;
#X obj 116 236 tgl 15 0 empty empty empty 17 7 0 10 -262144 -1 -1 1
1;
#X obj 167 300 line~;
#X obj 166 273 pack f 100;
#X floatatom 302 50 5 0 0 0 - - -, f 5;
#X obj 302 172 netsend -u -b;
#X msg 447 139 connect localhost 4646;
#X obj 448 110 loadbang;
#X obj 302 78 oscformat cube1;
#X obj 458 77 oscformat cube2;
#X obj 302 121 list prepend send;
#X obj 301 147 list trim;
#X obj 460 34 hsl 128 15 0 5 0 0 empty empty empty -2 -8 0 10 -262144
-1 -1 4500 1;
#X text 609 48 Send OSC to Godot using netsend;
#X text 11 190 Receive OSC from Godot;
#X connect 0 0 15 0;
#X connect 0 0 14 0;
#X connect 1 0 0 0;
#X connect 2 0 1 0;
#X connect 3 0 2 0;
#X connect 4 0 9 0;
#X connect 5 0 6 1;
#X connect 6 0 7 0;
#X connect 6 0 7 1;
#X connect 8 0 9 1;
#X connect 9 0 13 1;
#X connect 10 0 12 0;
#X connect 11 0 8 0;
#X connect 12 0 5 0;
#X connect 13 0 6 0;
#X connect 15 0 16 0;
#X connect 16 0 17 0;
#X connect 17 0 18 0;
#X connect 17 0 20 0;
#X connect 19 0 13 0;
#X connect 20 0 19 0;
#X connect 21 0 25 0;
#X connect 23 0 22 0;
#X connect 24 0 23 0;
#X connect 25 0 27 0;
#X connect 26 0 27 0;
#X connect 27 0 28 0;
#X connect 28 0 22 0;
#X connect 29 0 26 0;
